PathFileType	4	(X/Y/Z)	D:\TRACE\spotREDO_2-26-24\spot_baseline_5-v60.trc
DataRate	CameraRate	NumFrames	NumMarkers	Units	OrigDataRate	OrigDataStartFrame	OrigNumFrames
100.00	100.00	      28	9	mm	100.00	6126	      7000
Frame#	Time	front left toe			Front right toe			aft left toe			aft right toe			Arm			FL body			FR body			AL Body			AR Body			
		X1	Y1	Z1	X2	Y2	Z2	X3	Y3	Z3	X4	Y4	Z4	X5	Y5	Z5	X6	Y6	Z6	X7	Y7	Z7	X8	Y8	Z8	X9	Y9	Z9	

6126	61.250	-267.88785	23.17877	-138.71727	306.29892	27.55130	-81.73000	-317.54413	25.16604	401.06372	251.79414	29.14264	455.21783	42.27762	806.00446	-279.49356	-43.06111	546.81604	-261.75861	112.01027	551.96832	-250.24397	-121.26844	560.49786	618.22125	27.15471	560.13470	632.20697	
6127	61.260	-267.86746	23.16592	-138.69537	306.26672	27.56768	-81.72430	-317.51346	25.17846	401.05539	251.83365	29.17255	455.22415	42.28001	806.09503	-278.99265	-43.01111	546.93866	-261.46783	111.98400	551.96014	-249.77739	-121.08061	560.45691	618.92072	27.16562	560.06610	632.51422	
6128	61.270	-267.87723	23.19813	-138.65976	306.29462	27.59380	-81.72750	-317.45605	25.18929	401.11520	251.82248	29.15729	455.27731	42.33866	806.09839	-278.60626	-43.02435	546.97272	-261.11154	112.19706	552.00635	-249.24837	-121.00298	560.45728	619.33655	27.20164	560.03864	632.89856	
6129	61.280	-267.91254	23.27011	-138.60684	306.25519	27.57592	-81.67358	-317.45316	25.17674	401.15314	251.82263	29.11615	455.29553	42.33282	806.05914	-278.26102	-42.95033	546.94208	-260.53827	112.30484	552.02252	-248.68964	-120.94664	560.46997	619.80444	26.97691	560.11255	633.46283	
6130	61.290	-267.88098	23.23771	-138.62756	306.27957	27.57279	-81.65511	-317.46326	25.19186	401.14044	251.79514	29.12838	455.34866	42.55463	806.06610	-277.37073	-42.75901	546.95020	-259.63593	112.30534	551.99512	-248.16933	-120.94225	560.37799	620.29321	27.39879	560.01019	634.20081	
6131	61.300	-267.92108	23.25910	-138.59511	306.28046	27.52588	-81.64188	-317.47858	25.24889	401.15729	251.79924	29.06487	455.39352	42.62630	806.17688	-276.67612	-42.78777	547.01471	-259.19397	112.34178	552.04773	-247.76306	-120.83378	560.30402	620.98462	27.38158	559.99762	634.61475	
6132	61.310	-267.87814	23.28175	-138.57571	306.31863	27.51356	-81.61206	-317.48175	25.20623	401.21274	251.79817	29.03489	455.40808	42.62009	806.18695	-276.32922	-42.97016	547.11359	-258.75824	112.65096	552.08502	-247.14221	-120.76392	560.30475	621.42957	27.80646	560.00647	635.53265	
6133	61.320	-267.90598	23.29960	-138.53151	306.35742	27.52183	-81.58364	-317.42645	25.24188	401.27170	251.78517	29.02002	455.45340	42.89524	806.19452	-275.50470	-42.93610	547.20593	-257.99002	112.94865	552.07843	-246.27185	-120.79433	560.34680	622.12006	27.98308	559.94708	636.36249	
6134	61.330	-267.89114	23.31026	-138.54291	306.37717	27.51311	-81.55497	-317.42734	25.22132	401.30716	251.83403	28.99628	455.45450	43.27231	806.23883	-274.63269	-42.32424	546.94281	-257.02127	112.79845	552.18341	-245.69070	-120.70105	560.24866	622.92603	27.88671	559.85638	636.85175	
6135	61.340	-267.88235	23.29182	-138.50632	306.35489	27.50610	-81.52659	-317.35629	25.21314	401.29147	251.79768	28.97337	455.50116	43.13471	806.38641	-274.26413	-42.75481	547.30597	-256.62421	112.76567	552.18909	-245.31894	-120.52771	560.21906	623.60413	27.89178	559.70941	637.36932	
6136	61.350	-267.92053	23.30618	-138.48996	306.35492	27.49869	-81.51192	-317.37851	25.24774	401.30872	251.79773	28.98204	455.50461	43.05442	806.54468	-273.46393	-42.74467	547.39661	-256.03546	112.84262	552.19910	-244.29344	-120.35694	560.32153	624.22827	27.84829	559.69830	637.97552	
6137	61.360	-267.88715	23.33671	-138.48047	306.41806	27.49690	-81.46843	-317.39566	25.21908	401.35837	251.82535	28.96162	455.52213	43.47989	806.55347	-272.43607	-42.43029	547.57422	-255.24483	112.90545	552.23834	-243.51982	-120.12615	560.17877	625.12549	28.26120	559.66675	638.54010	
6138	61.370	-267.87314	23.33287	-138.43089	307.20154	27.80378	-81.14184	-317.37177	25.26003	401.34775	251.81676	28.99500	455.54428	43.50146	806.66394	-271.83337	-42.37071	547.58026	-254.46568	112.87262	552.24976	-243.02769	-119.90511	560.25116	625.80707	28.48430	559.48358	639.31982	
6139	61.380	-267.82562	23.37811	-138.35826	306.37662	27.48767	-81.41245	-317.36942	25.28560	401.35257	251.84785	29.00687	455.61288	43.57035	806.77399	-271.22107	-42.38176	547.78680	-253.75026	112.92862	552.47534	-242.18517	-119.75563	560.33612	626.33002	28.58823	559.53760	640.09949	
6140	61.390	-267.85492	23.40239	-138.34804	307.38300	27.85684	-81.00555	-317.36078	25.24714	401.45108	251.85501	28.99475	455.61520	43.98676	806.74976	-270.17361	-42.17263	547.91754	-253.06577	113.14436	552.43463	-241.38040	-119.63104	560.09711	627.35718	29.03902	559.33447	640.89282	
6141	61.400	-267.83279	23.41411	-138.23508	307.23996	27.80448	-81.01092	-317.34680	25.26492	401.43665	251.90987	29.01988	455.68658	44.00101	806.88513	-269.51495	-42.03952	548.05170	-252.20651	113.09373	552.40057	-240.60349	-119.77753	560.17578	628.07330	29.16440	559.15350	641.48035	
6142	61.410	-267.84924	23.36854	-138.21104	307.20602	27.83867	-80.97793	-317.33945	25.22773	401.48404	251.85712	29.05314	455.73813	44.25927	807.00348	-268.62051	-41.94524	548.09570	-251.48129	113.27623	552.52014	-239.77415	-120.33240	560.01788	627.98395	29.32541	559.10461	642.40747	
6143	61.420	-267.77957	23.34221	-138.12607	307.22247	27.80110	-80.98611	-317.37045	25.28461	401.49509	251.88550	29.06076	455.75000	44.72272	806.97028	-267.57013	-41.78497	548.21655	-250.77539	113.62975	552.42444	-239.01563	-120.02693	559.98016	628.99365	29.79337	559.01483	643.08948	
6144	61.430	-267.74142	23.41890	-138.04950	307.02731	27.50901	-81.27089	-317.41022	25.34965	401.50284	251.88106	29.07136	455.75095	44.84774	807.13055	-267.08771	-41.62329	548.30347	-249.75206	113.79645	552.47314	-238.22238	-119.76485	560.09888	629.77405	30.16352	558.93457	643.79865	
6145	61.440	-267.67905	23.45134	-137.97749	307.31680	27.93775	-80.82450	-317.41711	25.35098	401.52585	251.89525	29.12006	455.80515	45.18166	807.23615	-266.00952	-41.56931	548.48358	-249.10059	113.84016	552.62042	-237.41646	-119.55444	560.05707	630.49664	30.45587	558.65082	644.72382	
6146	61.450	-267.64536	23.45416	-137.92516	307.26865	27.84721	-80.77898	-317.33173	25.29818	401.57901	251.96945	29.17099	455.87125	45.22476	807.28735	-265.15555	-41.31982	548.51563	-248.17880	113.92879	552.61078	-236.57108	-119.28253	560.04437	631.60516	30.55441	558.68848	645.56921	
6147	61.460	-267.57944	23.40720	-137.84601	307.25287	27.81296	-80.67503	-317.37878	25.33811	401.61819	251.97285	29.15605	455.86667	45.35102	807.36389	-264.26096	-41.23080	548.53033	-247.27977	114.14182	552.72852	-235.57217	-119.24482	560.08936	632.25165	29.57158	559.16113	646.50946	
6148	61.470	-267.52417	23.42431	-137.76756	307.08588	27.36823	-81.06599	-317.29575	25.31031	401.64566	251.99989	29.20243	455.91302	45.88088	807.37933	-263.44864	-41.42498	548.76154	-246.51724	114.23279	553.07452	-235.07324	-119.10201	560.14447	633.25342	29.70374	559.19885	647.35779	
6149	61.480	-267.47986	23.46667	-137.71713	307.09482	27.47738	-80.90735	-317.22412	25.26853	401.71100	252.06201	29.19790	455.98947	46.08289	807.36993	-262.70914	-41.03012	548.73083	-245.54456	114.40309	552.81647	-234.01093	-119.07886	560.27356	634.10791	30.20553	559.18140	648.34796	
6150	61.490	-267.46957	23.54638	-137.56836	307.13065	27.52185	-80.80460	-317.29117	25.27187	401.80508	252.05495	29.21361	456.00623	46.42866	807.50439	-261.51901	-40.75635	548.83826	-244.65953	114.70768	552.06549	-232.28123	-118.73212	560.31274	634.96820	30.22692	559.11670	649.15729	
6151	61.500	-267.47491	23.55475	-137.51326	307.53305	27.96121	-80.15477	-317.25510	25.27531	401.82870	252.14708	29.22599	456.08731	46.32603	807.56854	-260.85376	-40.77690	548.86688	-243.80302	114.70938	552.14319	-231.79225	-118.50483	560.32855	635.88538	30.48167	559.20801	650.11963	
6152	61.510	-267.47119	23.58257	-137.47829	307.52585	27.91858	-80.11224	-317.21576	25.24585	401.84555	252.20717	29.19750	456.12967	46.75367	807.52808	-259.69800	-40.58173	548.93292	-242.79845	115.14069	552.02069	-230.57782	-118.18748	560.44409	636.74036	29.29111	559.93793	651.10767	
6153	61.520	-267.46426	23.58011	-137.42961	307.13504	27.43906	-80.53966	-317.21924	25.24654	401.95468	252.14911	29.21110	456.13068	47.06874	807.50153	-259.05731	-40.49532	548.84808	-241.95093	115.26894	552.08295	-229.93872	-118.08387	560.32703	637.71820	29.83651	559.58063	652.27234	
